<?xml version="1.0" encoding="UTF-8" standalone="no"?>
<!-- Created with Inkscape (http://www.inkscape.org/) -->

<svg
   width="19.138863mm"
   height="19.852589mm"
   viewBox="0 0 19.138863 19.852589"
   version="1.1"
   id="svg1"
   xml:space="preserve"
   xmlns="http://www.w3.org/2000/svg"
   xmlns:svg="http://www.w3.org/2000/svg"><defs
     id="defs1" /><g
     id="layer1"
     transform="translate(-48.62462,-54.251173)"><g
       id="g6"
       transform="matrix(0.82150975,0,0,0.82150975,12.55498,11.128579)"><g
         id="g5"><g
           style="fill:#1c6da6;fill-opacity:1"
           id="g3"
           transform="matrix(0.96088303,0,0,0.96088303,46.029405,48.648189)"><path
             id="path1-6"
             style="fill:#1c6da6;fill-opacity:1"
             d="m 11.999784,4.000172 c -2.141995,0 -3.9429076,0.1698366 -5.4049046,0.5098358 A 2.5,2.5 0 0 0 4.7088095,6.4541602 L 4.3990359,7.9998017 H 2.7141038 A 0.75,0.75 0 0 0 2.0440032,9.0850851 l 0.2500777,0.5001553 a 0.75,0.75 0 0 0 0.6701006,0.414645 H 3.9591143 A 1.999,1.999 0 0 1 3.781102,10.330096 l -0.7808878,1.169718 c -0.6519986,0.977998 -1.0003107,2.12718 -1.0003107,3.303176 v 0.360327 l 2.8820781,2.718587 c 0.2133772,0.201231 0.5222393,0.25652 0.8040132,0.175323 1.6087438,-0.463554 3.3970062,-0.153426 4.7778282,0.942766 h 8.036368 l 0.394746,2.37278 a 0.75,0.75 0 0 0 0.740015,0.627077 h 1.615018 a 0.75,0.75 0 0 0 0.750233,-0.749695 V 14.80299 A 5.954,5.954 0 0 0 20.999892,11.499814 L 20.22008,10.330096 A 1.994,1.994 0 0 1 20.042068,9.9998854 h 0.993857 a 0.75,0.75 0 0 0 0.671176,-0.414645 L 21.957179,9.0850851 A 0.75,0.75 0 0 0 21.287078,7.9998017 H 19.599995 L 19.290221,6.4541602 A 2.5,2.5 0 0 0 17.405227,4.5100078 C 15.943231,4.1700086 14.14078,4.000172 11.999784,4.000172 Z m 0,2.0000837 c 1.999996,0 3.65408,0.1556697 4.952076,0.4576691 a 0.5,0.5 0 0 1 0.378075,0.3888305 l 0.630841,3.1574327 a 4,4 0 0 0 0.340428,0.996546 H 5.6989021 c 0.1569996,-0.315 0.2708907,-0.649548 0.3398905,-0.996546 L 6.6712472,6.8467553 A 0.5,0.5 0 0 1 7.048246,6.4568492 C 8.3462434,6.1568498 9.9997886,6.0002557 11.999784,6.0002557 Z M 6.0560023,12.985759 a 1.5226826,1.5226826 0 0 1 1.522516,1.522516 1.5226826,1.5226826 0 0 1 -1.522516,1.522516 1.5226826,1.5226826 0 0 1 -1.522516,-1.522516 1.5226826,1.5226826 0 0 1 1.522516,-1.522516 z m 12.4000887,0.01506 a 1.5,1.5 0 0 1 1.544028,1.49939 1.5,1.5 0 1 1 -2.999856,0 1.5,1.5 0 0 1 1.239094,-1.47734 1.5,1.5 0 0 1 0.216734,-0.02205 z" /></g><g
           style="fill:#ffffff;fill-opacity:1;stroke:none;stroke-width:0.825929;stroke-linejoin:miter;stroke-dasharray:none;stroke-opacity:1;paint-order:normal"
           id="g2"
           transform="matrix(0.02158216,0.73948773,-0.73948773,0.02158216,59.934092,60.272884)" /></g><g
         style="fill:#1c6da6;fill-opacity:1;stroke:none;stroke-width:0.825929;stroke-linejoin:miter;stroke-dasharray:none;stroke-opacity:1;paint-order:normal"
         id="g4"
         transform="matrix(0.02158216,0.73948773,-0.73948773,0.02158216,59.294351,60.912625)"><path
           fill-rule="evenodd"
           clip-rule="evenodd"
           d="m 18.9771,14.7904 c 2.6972,-2.6972 2.6972,-7.07027 0,-9.76749 -2.6972,-2.69721 -7.0703,-2.69721 -9.76749,0 C 7.41866,6.81385 6.8169,9.34366 7.40432,11.6311 7.49906,12 7.41492,12.399 7.14558,12.6684 l -3.71209,3.712 c -0.31791,0.318 -0.47408,0.7631 -0.42443,1.21 l 0.23207,2.0886 c 0.02474,0.2227 0.12453,0.4303 0.28295,0.5887 l 0.20821,0.2082 c 0.15843,0.1584 0.36605,0.2582 0.58872,0.283 l 2.08859,0.232 c 0.44685,0.0497 0.89204,-0.1065 1.20996,-0.4244 l 0.71002,-0.71 -1.74615,-1.7271 C 6.28893,17.8382 6.28632,17.3633 6.5776,17.0688 6.86888,16.7743 7.34375,16.7717 7.63825,17.063 l 1.75201,1.7328 1.94164,-1.9417 c 0.2694,-0.2693 0.6681,-0.3532 1.037,-0.2584 2.2874,0.5874 4.8172,-0.0144 6.6082,-1.8053 z M 12.5858,8.58579 c 0.781,-0.78105 2.0474,-0.78105 2.8284,0 0.7811,0.78105 0.7811,2.04741 0,2.82841 -0.781,0.7811 -2.0474,0.7811 -2.8284,0 -0.7811,-0.781 -0.7811,-2.04736 0,-2.82841 z"
           fill="#1c274c"
           id="path3"
           style="fill:#1c6da6;fill-opacity:1;stroke:none;stroke-width:0.825929;stroke-linejoin:miter;stroke-dasharray:none;stroke-opacity:1;paint-order:normal" /></g></g></g></svg>
