<?xml version="1.0" encoding="UTF-8" standalone="no"?>
<!-- Created with Inkscape (http://www.inkscape.org/) -->

<svg
   width="19.142157mm"
   height="19.527281mm"
   viewBox="0 0 19.142157 19.527281"
   version="1.1"
   id="svg1"
   xml:space="preserve"
   xmlns="http://www.w3.org/2000/svg"
   xmlns:svg="http://www.w3.org/2000/svg"><defs
     id="defs1" /><g
     id="layer1"
     transform="translate(-49.538823,-87.157117)"><g
       id="g26"
       style="fill:#216778"><g
         id="g11"
         transform="matrix(0,-1.1729152,1.1729152,0,-57.759991,141.95477)"
         style="fill:#216778;stroke:#055570;stroke-width:0.7;stroke-linecap:square;paint-order:fill markers stroke"><path
           style="color:#000000;fill:#216778;stroke:none;-inkscape-stroke:none"
           d="m 35.455078,91.480469 c -1.344806,-1.21e-4 -2.44348,1.096599 -2.443359,2.441406 -1.21e-4,1.344807 1.098552,2.44348 2.443359,2.443359 0.977064,-3.81e-4 1.845886,-0.589359 2.230469,-1.470703 h 1.421875 c -0.05327,0 0.0027,0.02726 -0.0059,0.0078 0.384954,0.878912 1.257397,1.461546 2.232422,1.46289 1.344807,1.21e-4 2.443481,-1.098552 2.44336,-2.443359 1.2e-4,-1.344807 -1.098553,-2.441527 -2.44336,-2.441406 -0.97005,0.0013 -1.838619,0.575829 -2.226562,1.447265 0.0051,-0.01148 -0.06012,0.02344 -0.01367,0.02344 h -1.410156 c 0.05238,0 -0.0042,-0.03014 0.0039,-0.01172 -0.385345,-0.877944 -1.25804,-1.457641 -2.232422,-1.458984 z m -0.002,0.699218 h 0.002 c 0.696558,0.0017 1.317195,0.41538 1.591797,1.041016 0.112218,0.255671 0.325099,0.429688 0.636719,0.429688 h 1.410156 c 0.317768,0 0.536947,-0.178284 0.652344,-0.4375 0.276427,-0.620937 0.894434,-1.031476 1.58789,-1.033204 0.966455,-8.6e-5 1.742274,0.775734 1.742188,1.742188 8.7e-5,0.965801 -0.774691,1.741225 -1.740235,1.742187 -0.697816,-9.62e-4 -1.319164,-0.414092 -1.59375,-1.041015 -0.111748,-0.25514 -0.324059,-0.427734 -0.634765,-0.427735 h -1.453125 c -0.293871,10e-7 -0.492477,0.159094 -0.595703,0.404297 -0.26961,0.640428 -0.896567,1.064177 -1.603516,1.064453 -0.966455,8.7e-5 -1.742274,-0.775732 -1.742187,-1.742187 -8.7e-5,-0.965801 0.77469,-1.741226 1.740234,-1.742188 z"
           id="path8" /></g><g
         id="g13"
         transform="matrix(0,-1.1729152,1.1729152,0,-44.347263,141.95477)"
         style="fill:#216778;stroke:#055570;stroke-width:0.7;stroke-linecap:square;paint-order:fill markers stroke"><path
           style="color:#000000;fill:#216778;stroke:none;-inkscape-stroke:none"
           d="m 35.455078,91.480469 c -1.344806,-1.21e-4 -2.44348,1.096599 -2.443359,2.441406 -1.21e-4,1.344807 1.098552,2.44348 2.443359,2.443359 0.977064,-3.81e-4 1.845886,-0.589359 2.230469,-1.470703 h 1.421875 c -0.05327,0 0.0027,0.02726 -0.0059,0.0078 0.384954,0.878912 1.257397,1.461546 2.232422,1.46289 1.344807,1.21e-4 2.443481,-1.098552 2.44336,-2.443359 1.2e-4,-1.344807 -1.098553,-2.441527 -2.44336,-2.441406 -0.97005,0.0013 -1.838619,0.575829 -2.226562,1.447265 0.0051,-0.01148 -0.06012,0.02344 -0.01367,0.02344 h -1.410156 c 0.05238,0 -0.0042,-0.03014 0.0039,-0.01172 -0.385345,-0.877944 -1.25804,-1.457641 -2.232422,-1.458984 z m -0.002,0.699218 h 0.002 c 0.696558,0.0017 1.317195,0.41538 1.591797,1.041016 0.112218,0.255671 0.325099,0.429688 0.636719,0.429688 h 1.410156 c 0.317768,0 0.536947,-0.178284 0.652344,-0.4375 0.276427,-0.620937 0.894434,-1.031476 1.58789,-1.033204 0.966455,-8.6e-5 1.742274,0.775734 1.742188,1.742188 8.7e-5,0.965801 -0.774691,1.741225 -1.740235,1.742187 -0.697816,-9.62e-4 -1.319164,-0.414092 -1.59375,-1.041015 -0.111748,-0.25514 -0.324059,-0.427734 -0.634765,-0.427735 h -1.453125 c -0.293871,10e-7 -0.492477,0.159094 -0.595703,0.404297 -0.26961,0.640428 -0.896567,1.064177 -1.603516,1.064453 -0.966455,8.7e-5 -1.742274,-0.775732 -1.742187,-1.742187 -8.7e-5,-0.965801 0.77469,-1.741226 1.740234,-1.742188 z"
           id="path13" /></g><g
         id="g17"
         transform="matrix(0,-1.1729152,1.1729152,0,-51.053627,138.50436)"
         style="fill:#216778;stroke:#055570;stroke-width:0.7;stroke-linecap:square;stroke-linejoin:miter;stroke-dasharray:none;stroke-opacity:1;paint-order:fill markers stroke"><path
           style="color:#000000;fill:#216778;stroke:none;-inkscape-stroke:none"
           d="m 27.128954,93.921827 c -1.21e-4,1.344806 1.0966,2.44348 2.441406,2.443359 0.977051,-3.81e-4 1.845843,-0.589275 2.230469,-1.470703 h 1.421875 c -0.05391,0 0.0027,0.02926 -0.0059,0.0098 0.0262,0.05983 0.05455,0.116884 0.08398,0.171875 0.01572,0.02924 0.02492,0.04408 0.02539,0.04492 0.02662,0.04731 0.0567,0.09313 0.08789,0.140625 v 0.002 c 0.01483,0.02249 0.02729,0.0375 0.03516,0.04883 0.03228,0.04654 0.0654,0.09532 0.103515,0.142578 6.29e-4,7.82e-4 0.0081,0.01084 0.02344,0.0293 0.0452,0.05435 0.0929,0.10624 0.144531,0.158203 v 0.002 h 0.002 c 0.02192,0.02192 0.03111,0.02906 0.02734,0.02539 0.04184,0.04077 0.08413,0.07901 0.126953,0.115234 0.01718,0.01456 0.03377,0.02934 0.05078,0.04297 0.04252,0.03404 0.0887,0.069 0.138672,0.103516 0.0021,0.0015 0.01109,0.0073 0.0293,0.01953 0.05792,0.03878 0.118238,0.07547 0.179688,0.109375 0.03422,0.01889 0.05404,0.02789 0.06055,0.03125 0.04081,0.02103 0.08323,0.04307 0.126954,0.0625 0.02175,0.0097 0.04615,0.01987 0.07422,0.03125 0.05162,0.02091 0.103518,0.03992 0.154297,0.05664 -0.0012,-4.13e-4 0.01291,0.0058 0.04492,0.01563 0.06882,0.02115 0.138692,0.03812 0.207031,0.05273 0.03005,0.0064 0.05158,0.0093 0.06445,0.01172 0.04873,0.009 0.09824,0.01728 0.148438,0.02344 0.02412,0.0029 0.05031,0.0053 0.07813,0.0078 0.06822,0.0061 0.14083,0.0116 0.216797,0.01172 0.002,4e-6 0.0031,0 0.0039,0 0.07701,-3e-5 0.149923,-0.0053 0.220703,-0.01172 0.02976,-0.0027 0.05037,-0.0064 0.0625,-0.0078 0.05752,-0.0068 0.11567,-0.01429 0.173828,-0.02539 0.0081,-0.0016 0.0245,-0.005 0.04687,-0.0098 0.149176,-0.03159 0.29516,-0.07709 0.433594,-0.134766 0.01401,-0.0059 0.02355,-0.0098 0.02344,-0.0098 0.06379,-0.02737 0.126715,-0.05821 0.189453,-0.0918 h 0.002 l 0.002,-0.002 0.0039,-0.002 0.0039,-0.002 c 0.0071,-0.0039 0.0071,-0.0034 0.0078,-0.0039 0.135078,-0.07397 0.26208,-0.159842 0.378906,-0.255859 4.1e-5,-3.3e-5 -0.02096,0.01273 -0.04102,0.02539 0.02023,-0.01395 0.03653,-0.02606 0.04687,-0.0332 6.97e-4,-5.78e-4 0.0013,-0.0014 0.002,-0.002 0.287914,-0.239126 0.520582,-0.548221 0.675781,-0.904297 h 1.419922 c -0.0539,0 0.0023,0.02847 -0.0059,0.0098 0.385004,0.879027 1.257495,1.459593 2.232422,1.460937 1.344807,1.21e-4 2.443481,-1.098553 2.44336,-2.443359 1.2e-4,-1.344805 -1.098553,-2.441527 -2.44336,-2.441406 -0.970159,0.0013 -1.838609,0.575809 -2.226562,1.447265 0.0053,-0.01184 -0.0596,0.02148 -0.01367,0.02148 h -1.410156 c 0.05219,0 -0.0042,-0.0282 0.0039,-0.0098 -0.02639,-0.06015 -0.0549,-0.117592 -0.08398,-0.171875 -0.01343,-0.02501 -0.02183,-0.03817 -0.02344,-0.04102 -0.02826,-0.05035 -0.05861,-0.09902 -0.08984,-0.146484 h 0.002 c -0.01304,-0.01987 -0.02569,-0.0352 -0.03516,-0.04883 -0.03261,-0.04699 -0.06731,-0.09366 -0.103515,-0.138672 -0.0025,-0.0031 -0.01044,-0.01328 -0.02539,-0.03125 v -0.002 c -0.04344,-0.05217 -0.09026,-0.103394 -0.140625,-0.154297 -0.02788,-0.02819 -0.04342,-0.04153 -0.04492,-0.04297 -0.03484,-0.03346 -0.07203,-0.06624 -0.111328,-0.09961 -0.01593,-0.01354 -0.03275,-0.02889 -0.05273,-0.04492 -0.04404,-0.03528 -0.08992,-0.07109 -0.136719,-0.103516 h -0.002 c -0.0052,-0.0036 -0.01497,-0.01058 -0.03125,-0.02148 -0.05773,-0.0386 -0.118644,-0.07669 -0.181641,-0.111328 -0.02967,-0.01627 -0.04682,-0.02239 -0.04883,-0.02344 -0.04278,-0.02228 -0.08868,-0.04621 -0.138672,-0.06836 -0.02355,-0.01044 -0.04755,-0.02123 -0.07227,-0.03125 -0.04781,-0.01936 -0.09343,-0.03424 -0.136718,-0.04883 -0.0093,-0.0031 -0.03164,-0.01228 -0.06836,-0.02344 2e-6,10e-7 -0.0037,3.3e-5 -0.0039,0 -0.06708,-0.0203 -0.132223,-0.03726 -0.195312,-0.05078 -0.02011,-0.0043 -0.03915,-0.0084 -0.05664,-0.01172 -0.05449,-0.01025 -0.110465,-0.01879 -0.166016,-0.02539 -0.02036,-0.0024 -0.04277,-0.0056 -0.06836,-0.0078 -0.06741,-0.0061 -0.139102,-0.0096 -0.216797,-0.0098 -8.11e-4,0 -0.0019,-4e-6 -0.0039,0 -0.07587,1e-4 -0.148955,0.0037 -0.216797,0.0098 -0.03016,0.0027 -0.05492,0.0058 -0.07227,0.0078 h -0.002 c -0.05477,0.0066 -0.107543,0.01587 -0.158203,0.02539 -0.008,0.0014 -0.02755,0.0051 -0.05859,0.01172 -0.06483,0.01386 -0.13357,0.02955 -0.203125,0.05078 -0.03664,0.01122 -0.05855,0.02079 -0.06641,0.02344 -0.04193,0.01413 -0.08323,0.02934 -0.126953,0.04687 -0.02924,0.01172 -0.05913,0.02426 -0.08789,0.03711 -0.04384,0.01958 -0.08355,0.03927 -0.121093,0.05859 h -0.002 c -0.0081,0.0042 -0.02738,0.01406 -0.05859,0.03125 -0.0608,0.03346 -0.120726,0.06945 -0.177735,0.107422 -0.02616,0.01742 -0.03719,0.0274 -0.03711,0.02734 v -0.002 c -0.04579,0.03178 -0.09139,0.06712 -0.136719,0.103515 -0.01796,0.01444 -0.03368,0.02568 -0.04492,0.03516 -0.04432,0.03733 -0.09024,0.07941 -0.136718,0.125 -7.45e-4,7.32e-4 -0.0089,0.0069 -0.02148,0.01953 -0.05119,0.05139 -0.0969,0.104017 -0.140625,0.15625 -0.01433,0.01717 -0.02585,0.03186 -0.0332,0.04102 -0.03474,0.04333 -0.06794,0.08725 -0.09961,0.132813 -0.0082,0.01181 -0.02043,0.02844 -0.03516,0.05078 -0.03122,0.04745 -0.0578,0.09215 -0.08203,0.134766 -0.0014,0.0024 -0.01147,0.01955 -0.0293,0.05273 -0.0053,0.01 -0.0078,0.01327 -0.0059,0.0098 -0.02522,0.04758 -0.05076,0.09773 -0.07422,0.15039 0.0053,-0.01184 -0.05765,0.02148 -0.01172,0.02148 h -1.410156 c 0.0522,0 -0.0045,-0.02899 0.0039,-0.0098 -0.385334,-0.87792 -1.259963,-1.457641 -2.234375,-1.458984 -0.978588,3.84e-4 -2.441502,0.68424 -2.441345,2.441643 z m 2.441358,-1.74214 c 0.697326,9.62e-4 1.316927,0.41477 1.591797,1.041016 0.11257,0.256473 0.327242,0.429688 0.638672,0.429688 h 1.410156 c 0.317247,0 0.536793,-0.17792 0.652344,-0.4375 0.01558,-0.03499 0.03339,-0.07094 0.05273,-0.107422 v -0.002 l 0.002,-0.002 v -0.002 c -0.0013,0.0025 0.0076,-0.0093 0.02344,-0.03711 0.02071,-0.03643 0.04014,-0.06961 0.05859,-0.09766 0.0047,-0.0071 0.01154,-0.01806 0.02344,-0.03516 v -0.002 c 0.02273,-0.03271 0.04767,-0.06306 0.07227,-0.09375 0.01125,-0.01401 0.01877,-0.0237 0.02344,-0.0293 0.03371,-0.04027 0.06597,-0.07756 0.09961,-0.111328 -0.0011,0.0011 0.0048,-0.003 0.01563,-0.01367 0.02909,-0.02854 0.06106,-0.05904 0.09766,-0.08984 0.01348,-0.01136 0.02401,-0.01957 0.03125,-0.02539 0.03084,-0.02476 0.0632,-0.04835 0.09766,-0.07227 0.022,-0.01529 0.03128,-0.02215 0.02734,-0.01953 0.04126,-0.02748 0.08414,-0.05261 0.126953,-0.07617 0.0026,-0.0014 0.01668,-0.0098 0.04297,-0.02344 v 0.002 c 0.03113,-0.01602 0.0591,-0.03099 0.08594,-0.04297 0.02038,-0.0091 0.0416,-0.01896 0.0625,-0.02734 0.0288,-0.01155 0.05943,-0.02229 0.0918,-0.0332 0.03017,-0.01017 0.045,-0.01505 0.04687,-0.01563 0.04371,-0.01335 0.09264,-0.02601 0.144532,-0.03711 0.0017,-3.7e-4 0.01637,-0.0028 0.04297,-0.0078 0.03883,-0.0073 0.07497,-0.01319 0.111329,-0.01758 0.02449,-0.0029 0.04138,-0.0048 0.05273,-0.0059 h 0.002 c 0.05436,-0.0049 0.103752,-0.0077 0.152344,-0.0078 h 0.0039 c 0.04747,1.53e-4 0.09902,0.0028 0.154297,0.0078 h 0.002 c 0.01325,0.0012 0.02872,0.0037 0.04687,0.0059 0.0398,0.0047 0.07811,0.01023 0.117188,0.01758 0.0152,0.0028 0.02889,0.0052 0.04102,0.0078 0.05056,0.01084 0.09742,0.02399 0.140625,0.03711 v -0.002 c 3.5e-5,1.1e-5 0.07814,0.01081 0.09961,0.01367 -0.02331,-0.003 -0.09769,-0.01173 -0.09766,-0.01172 0.0039,0.0013 0.01978,0.0059 0.04883,0.01563 0.03579,0.01206 0.06842,0.02527 0.09766,0.03711 0.01626,0.0066 0.03407,0.01407 0.05078,0.02148 0.0308,0.01365 0.06421,0.02844 0.09961,0.04687 0.02571,0.01341 0.03747,0.0208 0.03516,0.01953 0.04198,0.02318 0.08531,0.05033 0.126953,0.07813 0.0016,10e-4 0.01,0.0063 0.02344,0.01563 0.03295,0.0228 0.06598,0.04693 0.09766,0.07227 0.01116,0.0089 0.02459,0.0209 0.03906,0.0332 0.02587,0.02197 0.05318,0.04643 0.08008,0.07227 0.02434,0.0234 0.03393,0.032 0.03125,0.0293 0.03359,0.03395 0.06834,0.07142 0.101563,0.111328 2.9e-4,3.49e-4 0.0051,0.008 0.01758,0.02344 0.02531,0.03146 0.0506,0.06363 0.07422,0.09766 0.0101,0.01453 0.01768,0.02639 0.02344,0.03516 0.02253,0.03424 0.04453,0.06996 0.06445,0.105468 0.01166,0.02071 0.01625,0.03047 0.01563,0.0293 0.02216,0.04136 0.04292,0.08092 0.06055,0.121094 0.112227,0.255687 0.325289,0.429688 0.636719,0.429688 h 1.410156 c 0.317246,0 0.536794,-0.177923 0.652344,-0.4375 0.276417,-0.620916 0.894544,-1.031515 1.58789,-1.033204 0.966454,-8.6e-5 1.744227,0.775735 1.744141,1.742188 8.7e-5,0.965799 -0.776646,1.741225 -1.742188,1.742187 -0.697913,-9.62e-4 -1.319216,-0.414208 -1.59375,-1.041015 -0.111422,-0.254394 -0.323421,-0.427735 -0.634765,-0.427735 h -1.453125 c -0.293967,0 -0.492705,0.159638 -0.595703,0.404297 -0.110489,0.262453 -0.282462,0.48749 -0.496094,0.664063 -7.05e-4,5.82e-4 -0.0012,0.0014 -0.002,0.002 -1.36e-4,8.6e-5 -0.002,0.002 -0.002,0.002 l -0.0078,0.0059 c -0.08421,0.06847 -0.172275,0.128935 -0.265625,0.179688 h -0.002 c 8.17e-4,-4.63e-4 -0.002,0.002 -0.002,0.002 4.3e-5,-5.2e-5 -0.0017,-1.1e-4 -0.002,0 v 0.002 h -0.0039 c -0.0043,0.0022 0.0034,-0.0012 -0.0059,0.0039 -0.04145,0.02196 -0.08591,0.04322 -0.130859,0.0625 -0.01361,0.0059 -0.01909,0.0073 -0.01563,0.0059 -0.09901,0.04125 -0.202456,0.07518 -0.308594,0.09766 -0.0032,6.8e-4 -0.01444,0.0023 -0.0332,0.0059 -0.0401,0.0077 -0.08228,0.0145 -0.125,0.01953 -0.02303,0.0028 -0.03731,0.0034 -0.04297,0.0039 -0.05499,0.005 -0.107051,0.0078 -0.158203,0.0078 h -0.0039 c -0.04909,-7.8e-5 -0.09974,-0.0029 -0.154297,-0.0078 -0.01639,-0.0015 -0.03527,-0.0035 -0.05469,-0.0059 h -0.002 c -0.03462,-0.0043 -0.07082,-0.0092 -0.105468,-0.01563 -0.02333,-0.0043 -0.03771,-0.0083 -0.04492,-0.0098 h -0.002 c -0.05029,-0.01081 -0.09824,-0.02288 -0.144532,-0.03711 0.0058,0.0018 -0.0059,-0.0027 -0.0332,-0.01172 -0.03823,-0.01259 -0.07451,-0.02494 -0.109375,-0.03906 -0.01483,-0.006 -0.03231,-0.01433 -0.05273,-0.02344 -0.02974,-0.01321 -0.05935,-0.02726 -0.08984,-0.04297 -0.02887,-0.01488 -0.04436,-0.02118 -0.04492,-0.02148 v -0.002 c -0.04359,-0.02405 -0.08729,-0.04831 -0.128906,-0.07617 0.0027,0.0018 -0.0019,-0.0027 -0.01758,-0.01367 l -0.002,-0.002 c -0.03126,-0.02159 -0.06505,-0.04656 -0.09961,-0.07422 -0.01263,-0.01013 -0.02337,-0.01931 -0.03516,-0.0293 -0.03203,-0.0271 -0.0633,-0.05426 -0.0918,-0.08203 -0.0191,-0.0186 -0.02598,-0.02411 -0.02148,-0.01953 v -0.002 c -0.0348,-0.03509 -0.06805,-0.07298 -0.101563,-0.113281 0.0019,0.0023 -0.005,-0.0039 -0.01758,-0.01953 -0.02481,-0.03077 -0.0491,-0.06534 -0.07422,-0.101563 -0.01176,-0.01694 -0.02071,-0.02813 -0.02539,-0.03516 v -0.002 c -0.02056,-0.03139 -0.04066,-0.06427 -0.06055,-0.09961 -0.01402,-0.02488 -0.02125,-0.03641 -0.01953,-0.0332 -0.02195,-0.04101 -0.0407,-0.08022 -0.05859,-0.121094 -0.111767,-0.255182 -0.325374,-0.427735 -0.636719,-0.427735 h -1.451172 c -0.293968,0 -0.492704,0.159636 -0.595703,0.404297 -0.26957,0.640335 -0.898509,1.064177 -1.605469,1.064453 -0.966453,8.7e-5 -1.742274,-0.775733 -1.742187,-1.742187 -8.6e-5,-0.966453 0.775735,-1.742274 1.742187,-1.742188 z m 7.0625,3.041016 c -3.8e-5,1.8e-5 -0.01735,0.0095 -0.0332,0.01953 0.01143,-0.0079 0.02737,-0.01759 0.02734,-0.01758 -1.6e-5,8e-6 0.0041,-0.0012 0.0059,-0.002 z"
           id="path17" /></g></g></g></svg>
