<?xml version="1.0" encoding="UTF-8" standalone="no"?>
<!-- Created with Inkscape (http://www.inkscape.org/) -->

<svg
   width="20"
   height="20"
   viewBox="0 0 20 20"
   version="1.1"
   id="svg1"
   xml:space="preserve"
   xmlns="http://www.w3.org/2000/svg"
   xmlns:svg="http://www.w3.org/2000/svg"><defs
     id="defs1" /><path
     style="fill:#115788;fill-opacity:1;stroke:none;stroke-width:0.952805;stroke-linecap:round;stroke-miterlimit:2.3;-inkscape-stroke:none;paint-order:markers fill stroke"
     d="m 16.670612,3.53271 c -1.703678,1.024e-4 -3.092792,1.3892158 -3.092894,3.0928954 0.0021,1.0077602 0.49251,1.9370978 1.289637,2.508557 0.185786,0.1331898 0.385215,0.4656683 0.385215,0.6141125 v 0.4931521 c 0,0.163925 -0.211254,0.515873 -0.411268,0.662497 -0.78152,0.57291 -1.261512,1.491535 -1.263584,2.488087 v 0.0019 c 1.02e-4,1.703679 1.389216,3.092792 3.092894,3.092895 1.70368,-1.03e-4 3.092794,-1.389216 3.092896,-3.092895 1.02e-4,-1.0154 -0.496377,-1.951404 -1.302663,-2.523445 -0.179093,-0.127089 -0.37219,-0.45241 -0.37219,-0.593668 V 9.6589943 c 0,-0.099687 0.160262,-0.3740743 0.299613,-0.4670975 0.846816,-0.5652909 1.37307,-1.5232698 1.37524,-2.5662466 -1.02e-4,-1.7036797 -1.389216,-3.0927929 -3.092896,-3.0928954 z m 0,0.7648494 c 1.289667,7.77e-5 2.326108,1.038379 2.326186,2.328046 -0.0022,0.7855288 -0.398569,1.5051617 -1.034688,1.9298022 -0.350502,0.2339775 -0.640165,0.6133074 -0.640165,1.1035418 v 0.6178356 c 0,0.533586 0.323988,0.956311 0.694133,1.218921 0.606136,0.43004 0.980797,1.132685 0.98072,1.898165 -7.8e-5,1.289667 -1.036519,2.326108 -2.326186,2.326185 -1.289667,-7.7e-5 -2.327967,-1.036518 -2.328045,-2.326185 0.0015,-0.75126 0.363416,-1.441412 0.950945,-1.872112 0.380233,-0.278739 0.72577,-0.723056 0.72577,-1.280332 V 9.7482749 c 0,-0.5410943 -0.331907,-0.9698451 -0.705301,-1.2375301 -0.598762,-0.429253 -0.96923,-1.1261557 -0.971414,-1.8851394 7.8e-5,-1.289667 1.038378,-2.3279683 2.328045,-2.328046 z"
     id="circle4" /><path
     style="fill:#35739f;fill-opacity:1;stroke:none;stroke-width:0.952805;stroke-linecap:round;stroke-miterlimit:2.3;-inkscape-stroke:none;paint-order:markers fill stroke"
     d="m 9.9914313,0.14854177 c -1.703679,1.026e-4 -3.0927924,1.38921593 -3.092895,3.09289513 0.00216,1.0370026 0.5220358,1.9904299 1.3603528,2.556942 0.147412,0.099617 0.3145001,0.3833212 0.3145001,0.4912902 V 6.935418 c 0,0.1218027 -0.177995,0.4232696 -0.3386924,0.5340921 C 7.4105045,8.0379007 6.9006721,8.980813 6.8985363,10.007843 v 0.0019 c 0.00211,1.015047 0.5009215,1.949338 1.3082463,2.519723 0.176393,0.124625 0.3666066,0.445962 0.3666066,0.584338 v 0.56945 c 0,0.132534 -0.1864173,0.446019 -0.357302,0.565728 -0.8132667,0.569713 -1.3154311,1.50789 -1.3175509,2.527167 v 0.0019 c 1.025e-4,1.703679 1.3892159,3.092793 3.092895,3.092895 1.7038957,2.08e-4 3.0927927,-1.388999 3.0928957,-3.092895 2.6e-5,-1.013164 -0.493901,-1.94741 -1.297081,-2.519723 -0.182158,-0.129887 -0.377773,-0.458517 -0.377773,-0.603036 v -0.58805 c 0,-0.112571 0.170085,-0.4029 0.321945,-0.506177 0.833822,-0.567069 1.35068,-1.517542 1.352909,-2.551359 C 13.084166,8.979205 12.572154,8.031375 11.744444,7.4620662 11.585193,7.3525316 11.409473,7.0538151 11.409473,6.933557 V 6.3250271 c 0,-0.1266216 0.180833,-0.4342201 0.346137,-0.5489795 0.819484,-0.5689136 1.32651,-1.5109362 1.328717,-2.5346107 -1.03e-4,-1.703896 -1.389,-3.09310209 -3.0928957,-3.09289513 z m 0,0.76484951 C 11.281265,0.9132346 12.319399,1.9516027 12.319476,3.2414369 12.31724,4.0124168 11.933852,4.7197015 11.318288,5.1470472 10.954817,5.3993805 10.642763,5.8066952 10.642763,6.3250271 V 6.933557 c 0,0.5117034 0.3076,0.9114282 0.668081,1.1593705 0.621744,0.4276437 1.007892,1.1387809 1.008632,1.9149155 -0.0016,0.779354 -0.392951,1.494189 -1.019798,1.920498 -0.356819,0.242666 -0.656915,0.635217 -0.656915,1.138899 v 0.58806 c 0,0.537025 0.328013,0.961505 0.699717,1.226365 0.603803,0.430244 0.977017,1.132508 0.976996,1.896305 -7.7e-5,1.289835 -1.03821,2.326341 -2.3280447,2.326185 -1.2896665,-7.7e-5 -2.3279679,-1.036518 -2.3280455,-2.326185 0.0016,-0.768393 0.3804969,-1.471734 0.9918851,-1.900027 0.3661431,-0.256492 0.6848288,-0.670257 0.6848288,-1.194729 v -0.569449 c 0,-0.530578 -0.3234413,-0.949033 -0.6922726,-1.209617 C 8.040906,11.475351 7.6649774,10.773046 7.6633858,10.007843 7.6656119,9.2343349 8.0510548,8.5254652 8.6701585,8.0985104 9.031291,7.8494612 9.3400997,7.4486934 9.3400997,6.935418 V 6.2896691 C 9.3400997,5.7908027 9.0433006,5.4033795 8.688768,5.1637958 8.0585391,4.737904 7.6650116,4.0213316 7.6633858,3.2395759 7.6644636,1.9507753 8.7023871,0.91346891 9.9914313,0.91339128 Z"
     id="circle1" /><path
     style="fill:#1c6da6;fill-opacity:1;stroke:none;stroke-width:0.952805;stroke-linecap:round;stroke-miterlimit:2.3;-inkscape-stroke:none;paint-order:markers fill stroke"
     d="m 3.3131275,3.53271 c -1.7036786,1.024e-4 -3.09279175,1.3892158 -3.0928937,3.0928954 0.002096,1.0077602 0.49250978,1.9370978 1.2896355,2.508557 0.1857865,0.1331898 0.3852162,0.4656683 0.3852162,0.6141125 v 0.4931521 c 0,0.163925 -0.2112549,0.515873 -0.4112688,0.662497 -0.78151968,0.57291 -1.26151055,1.491535 -1.2635829,2.488087 v 0.0019 c 1.0195e-4,1.703653 1.3892151,3.092766 3.0928937,3.092868 1.7036796,-1.02e-4 3.0927933,-1.389215 3.0928953,-3.092895 C 6.4061257,12.378484 5.9096455,11.44248 5.1033599,10.87044 4.9242668,10.743409 4.7311703,10.418088 4.7311703,10.27683 V 9.6589943 c 0,-0.099687 0.1602619,-0.3740743 0.2996125,-0.4670975 C 5.8775989,8.6266059 6.4038533,7.668627 6.4060228,6.6256502 6.4059208,4.9219705 5.0168071,3.5328573 3.3131275,3.5327548 Z m 0,0.7648494 c 1.2896666,7.77e-5 2.3261072,1.038379 2.3261853,2.328046 C 5.6370261,7.4111342 5.2407449,8.1307671 4.6046254,8.5554076 4.2541236,8.7893851 3.9644594,9.168715 3.9644594,9.6589494 v 0.6178356 c 0,0.533586 0.3239881,0.956311 0.6941338,1.218921 0.6061366,0.43004 0.9807968,1.132685 0.9807196,1.898165 -7.81e-5,1.289667 -1.0365187,2.326108 -2.3261853,2.326185 -1.2896667,-7.7e-5 -2.32796792,-1.036518 -2.32804512,-2.326185 0.00152,-0.75126 0.36341512,-1.441412 0.95094432,-1.872112 0.3802331,-0.278739 0.7257698,-0.723056 0.7257698,-1.280332 V 9.7482749 c 0,-0.5410943 -0.3319068,-0.9698451 -0.7052998,-1.2375301 C 1.3577339,8.0814918 0.98726618,7.3845891 0.98508238,6.6256054 0.98515958,5.3359384 2.0234608,4.2976371 3.3131275,4.2975594 Z"
     id="path8" /></svg>
