<?xml version="1.0" encoding="UTF-8" standalone="no"?>
<!-- Created with Inkscape (http://www.inkscape.org/) -->

<svg
   width="19.142155mm"
   height="19.527281mm"
   viewBox="0 0 19.142155 19.527281"
   version="1.1"
   id="svg1"
   xml:space="preserve"
   xmlns="http://www.w3.org/2000/svg"
   xmlns:svg="http://www.w3.org/2000/svg"><defs
     id="defs1" /><g
     id="g1"
     style="fill:currentColor;fill-opacity:1;stroke:none"><path
       style="fill:#115788;fill-opacity:1;stroke:none;stroke-width:0.937196;stroke-linecap:round;stroke-miterlimit:2.3;-inkscape-stroke:none;paint-order:markers fill stroke"
       d="m 15.886038,3.3911086 c -1.675768,1.007e-4 -3.042125,1.366457 -3.042225,3.0422262 0.0021,0.9912506 0.484441,1.9053634 1.268509,2.4674607 0.182743,0.1310078 0.378905,0.4580395 0.378905,0.6040518 v 0.485073 c 0,0.1612397 -0.207794,0.5074217 -0.404531,0.6516437 -0.768717,0.563524 -1.240845,1.4671 -1.242883,2.447326 v 0.0019 c 10e-5,1.675769 1.366457,3.042125 3.042225,3.042226 1.675769,-1.01e-4 3.042126,-1.366457 3.042226,-3.042226 1.01e-4,-0.998765 -0.488245,-1.919435 -1.281322,-2.482104 C 17.470783,10.483679 17.28085,10.163687 17.28085,10.024743 V 9.4170293 c 0,-0.098054 0.157636,-0.367946 0.294704,-0.4594453 0.832943,-0.55603 1.350576,-1.4983149 1.35271,-2.5242052 -10e-5,-1.6757692 -1.366457,-3.0421254 -3.042226,-3.0422262 z m 0,0.7523193 c 1.268539,7.64e-5 2.288,1.0213678 2.288077,2.2899069 -0.0022,0.7726599 -0.392039,1.4805034 -1.017737,1.8981873 C 16.811618,8.5616665 16.5267,8.934782 16.5267,9.4169852 v 0.6077138 c 0,0.524845 0.31868,0.940644 0.682762,1.198952 0.596206,0.422995 0.964729,1.114129 0.964653,1.867069 -7.7e-5,1.268539 -1.019538,2.288 -2.288077,2.288076 -1.268539,-7.6e-5 -2.28983,-1.019537 -2.289906,-2.288076 0.0015,-0.738953 0.357462,-1.417799 0.935366,-1.841443 0.374004,-0.274172 0.71388,-0.71121 0.71388,-1.2593567 v -0.485073 c 0,-0.5322298 -0.32647,-0.9539567 -0.693746,-1.2172563 -0.588953,-0.4222208 -0.953352,-1.1077065 -0.9555,-1.8542562 7.6e-5,-1.2685391 1.021367,-2.2898305 2.289906,-2.2899069 z"
       id="circle4" /><path
       style="fill:#35739f;fill-opacity:1;stroke:none;stroke-width:0.937196;stroke-linecap:round;stroke-miterlimit:2.3;-inkscape-stroke:none;paint-order:markers fill stroke"
       d="M 9.5175559,0.06238128 C 7.8417873,0.0624822 6.475431,1.4288385 6.4753301,3.1046072 c 0.00212,1.020014 0.5134836,1.9578218 1.3380669,2.5150531 0.144997,0.097985 0.3093478,0.3770414 0.3093478,0.4832416 v 0.63517 c 0,0.1198073 -0.175079,0.4163354 -0.3331438,0.5253423 -0.81069,0.559079 -1.3121701,1.4865441 -1.3142709,2.496749 v 0.00187 c 0.00208,0.9984178 0.4927152,1.9174028 1.286814,2.4784438 0.1735033,0.122583 0.3606007,0.438656 0.3606007,0.574765 v 0.560121 c 0,0.130363 -0.1833633,0.438712 -0.3514485,0.55646 -0.7999434,0.56038 -1.2938812,1.483187 -1.2959662,2.485766 v 0.0019 c 1.008e-4,1.675769 1.3664571,3.042125 3.0422258,3.042226 1.6759821,2.04e-4 3.0421251,-1.366244 3.0422261,-3.042226 2.6e-5,-0.996566 -0.485809,-1.915507 -1.275831,-2.478444 -0.179174,-0.127759 -0.371584,-0.451005 -0.371584,-0.593157 V 12.76944 c 0,-0.110727 0.167298,-0.3963 0.31667,-0.497885 0.820162,-0.557779 1.328553,-1.492681 1.330745,-2.5095615 C 12.559624,8.7483767 12.056,7.8160744 11.24185,7.2560923 11.085208,7.1483521 10.912367,6.8545293 10.912367,6.7362414 V 6.1376807 c 0,-0.1245473 0.17787,-0.4271065 0.340466,-0.5399859 0.806059,-0.5595934 1.304779,-1.4861834 1.306949,-2.4930876 -1.01e-4,-1.675982 -1.366244,-3.04242949 -3.0422261,-3.04222592 z m 0,0.75231941 c 1.2687031,-1.5412e-4 2.2898301,1.02120301 2.2899061,2.28990651 -0.0022,0.7583494 -0.379307,1.454047 -0.984787,1.8743918 -0.357516,0.2481994 -0.664458,0.6488413 -0.664458,1.1586817 v 0.5985607 c 0,0.5033204 0.302561,0.8964967 0.657136,1.1403771 0.611559,0.4206379 0.991381,1.1201249 0.992109,1.8835447 -0.0016,0.7665858 -0.386514,1.4697108 -1.003092,1.8890358 -0.350973,0.23869 -0.646153,0.62481 -0.646153,1.120241 v 0.578426 c 0,0.528227 0.32264,0.945753 0.688254,1.206274 0.593911,0.423195 0.961011,1.113955 0.960991,1.865239 -7.6e-5,1.268704 -1.021202,2.28823 -2.2899061,2.288076 -1.2685386,-7.6e-5 -2.2898301,-1.019537 -2.2899064,-2.288076 0.00157,-0.755805 0.3742634,-1.447624 0.9756356,-1.8689 0.3601447,-0.25229 0.6736096,-0.659277 0.6736096,-1.175157 v -0.56012 c 0,-0.521885 -0.3181425,-0.933485 -0.6809315,-1.1898 C 7.598985,11.20363 7.229215,10.51283 7.2276495,9.7601632 7.2298391,8.9993269 7.6089675,8.3020702 8.2179288,7.88211 8.573145,7.6371408 8.8768947,7.2429386 8.8768947,6.7380719 v -0.63517 c 0,-0.4906937 -0.2919368,-0.87177 -0.6406613,-1.1074287 C 7.6163292,4.5765585 7.2292486,3.8717253 7.2276495,3.1027767 7.2287096,1.8350898 8.2496294,0.81477704 9.5175559,0.81470069 Z"
       id="circle1" /><path
       style="fill:#1c6da6;fill-opacity:1;stroke:none;stroke-width:0.937196;stroke-linecap:round;stroke-miterlimit:2.3;-inkscape-stroke:none;paint-order:markers fill stroke"
       d="M 3.1499385,3.3911086 C 1.4741703,3.3912093 0.10781356,4.7575656 0.10771328,6.4333348 0.10977511,7.4245854 0.59215455,8.3386982 1.376222,8.9007955 1.5589649,9.0318033 1.7551275,9.358835 1.7551275,9.5048473 v 0.485073 c 0,0.1612397 -0.2077941,0.5074217 -0.4045312,0.6516437 -0.76871717,0.563524 -1.24084462,1.4671 -1.24288302,2.447326 v 0.0019 c 1.0028e-4,1.675743 1.36645702,3.042099 3.04222522,3.0422 1.6757691,-1.01e-4 3.0421258,-1.366457 3.0422261,-3.042226 C 6.1922658,12.091999 5.7039192,11.171329 4.9108425,10.60866 4.7346834,10.483679 4.5447503,10.163687 4.5447503,10.024743 V 9.4170293 c 0,-0.098054 0.1576364,-0.367946 0.2947041,-0.4594453 C 5.6723976,8.401554 6.1900306,7.4592691 6.1921646,6.4333788 6.1920643,4.7576096 4.8257076,3.3912534 3.1499385,3.3911526 Z m 0,0.7523193 C 4.4184772,4.1435043 5.4379383,5.1647957 5.4380152,6.4333348 5.4357659,7.2059947 5.0459768,7.9138382 4.4202785,8.3315221 4.0755188,8.5616665 3.7906,8.934782 3.7906,9.4169852 v 0.6077138 c 0,0.524845 0.3186803,0.940644 0.6827622,1.198952 0.5962066,0.422995 0.9647289,1.114129 0.964653,1.867069 -7.69e-5,1.268539 -1.019538,2.288 -2.2880767,2.288076 -1.2685388,-7.6e-5 -2.28983026,-1.019537 -2.28990618,-2.288076 0.0015,-0.738953 0.35746158,-1.417799 0.93536558,-1.841443 0.374004,-0.274172 0.71388,-0.71121 0.71388,-1.2593567 V 9.5048473 C 2.5092779,8.9726175 2.1828085,8.5508906 1.8155326,8.287591 1.226579,7.8653702 0.86218038,7.1798845 0.86003232,6.4333348 0.86010824,5.1647957 1.8813997,4.1435043 3.1499385,4.1434279 Z"
       id="path8" /></g></svg>
